<svg width="36" height="36" viewBox="0 0 36 36" fill="none" xmlns="http://www.w3.org/2000/svg">
<path d="M10.5 33C9.675 33 8.9685 32.706 8.3805 32.118C7.7925 31.53 7.499 30.824 7.5 30C7.5 29.175 7.794 28.4685 8.382 27.8805C8.97 27.2925 9.676 26.999 10.5 27C11.325 27 12.0315 27.294 12.6195 27.882C13.2075 28.47 13.501 29.176 13.5 30C13.5 30.825 13.206 31.5315 12.618 32.1195C12.03 32.7075 11.324 33.001 10.5 33ZM25.5 33C24.675 33 23.9685 32.706 23.3805 32.118C22.7925 31.53 22.499 30.824 22.5 30C22.5 29.175 22.794 28.4685 23.382 27.8805C23.97 27.2925 24.676 26.999 25.5 27C26.325 27 27.0315 27.294 27.6195 27.882C28.2075 28.47 28.501 29.176 28.5 30C28.5 30.825 28.206 31.5315 27.618 32.1195C27.03 32.7075 26.324 33.001 25.5 33ZM10.5 25.5C9.375 25.5 8.525 25.006 7.95 24.018C7.375 23.03 7.35 22.049 7.875 21.075L9.9 17.4L4.5 6.00001H2.9625C2.5375 6.00001 2.1875 5.85601 1.9125 5.56801C1.6375 5.28001 1.5 4.92401 1.5 4.50001C1.5 4.07501 1.644 3.71851 1.932 3.43051C2.22 3.14251 2.576 2.99901 3 3.00001H5.4375C5.7125 3.00001 5.975 3.07501 6.225 3.22501C6.475 3.37501 6.6625 3.58751 6.7875 3.86251L7.8 6.00001H29.925C30.6 6.00001 31.0625 6.25001 31.3125 6.75001C31.5625 7.25001 31.55 7.77501 31.275 8.32501L25.95 17.925C25.675 18.425 25.3125 18.8125 24.8625 19.0875C24.4125 19.3625 23.9 19.5 23.325 19.5H12.15L10.5 22.5H27.0375C27.4625 22.5 27.8125 22.644 28.0875 22.932C28.3625 23.22 28.5 23.576 28.5 24C28.5 24.425 28.356 24.7815 28.068 25.0695C27.78 25.3575 27.424 25.501 27 25.5H10.5Z" fill="white"/>
</svg>
