<svg width="31" height="30" viewBox="0 0 31 30" fill="none" xmlns="http://www.w3.org/2000/svg">
<path d="M9.5 30C8.675 30 7.9685 29.706 7.3805 29.118C6.7925 28.53 6.499 27.824 6.5 27C6.5 26.175 6.794 25.4685 7.382 24.8805C7.97 24.2925 8.676 23.999 9.5 24C10.325 24 11.0315 24.294 11.6195 24.882C12.2075 25.47 12.501 26.176 12.5 27C12.5 27.825 12.206 28.5315 11.618 29.1195C11.03 29.7075 10.324 30.001 9.5 30ZM24.5 30C23.675 30 22.9685 29.706 22.3805 29.118C21.7925 28.53 21.499 27.824 21.5 27C21.5 26.175 21.794 25.4685 22.382 24.8805C22.97 24.2925 23.676 23.999 24.5 24C25.325 24 26.0315 24.294 26.6195 24.882C27.2075 25.47 27.501 26.176 27.5 27C27.5 27.825 27.206 28.5315 26.618 29.1195C26.03 29.7075 25.324 30.001 24.5 30ZM9.5 22.5C8.375 22.5 7.525 22.006 6.95 21.018C6.375 20.03 6.35 19.049 6.875 18.075L8.9 14.4L3.5 3.00001H1.9625C1.5375 3.00001 1.1875 2.85601 0.9125 2.56801C0.6375 2.28001 0.5 1.92401 0.5 1.50001C0.5 1.07501 0.644 0.718505 0.932 0.430505C1.22 0.142505 1.576 -0.00099481 2 5.19032e-06H4.4375C4.7125 5.19032e-06 4.975 0.0750053 5.225 0.225005C5.475 0.375005 5.6625 0.587505 5.7875 0.862505L6.8 3.00001H28.925C29.6 3.00001 30.0625 3.25001 30.3125 3.75001C30.5625 4.25001 30.55 4.77501 30.275 5.32501L24.95 14.925C24.675 15.425 24.3125 15.8125 23.8625 16.0875C23.4125 16.3625 22.9 16.5 22.325 16.5H11.15L9.5 19.5H26.0375C26.4625 19.5 26.8125 19.644 27.0875 19.932C27.3625 20.22 27.5 20.576 27.5 21C27.5 21.425 27.356 21.7815 27.068 22.0695C26.78 22.3575 26.424 22.501 26 22.5H9.5Z" fill="#3C6046"/>
</svg>
