<svg width="23" height="30" viewBox="0 0 23 30" fill="none" xmlns="http://www.w3.org/2000/svg">
<path d="M21 30C20.575 30 20.2185 29.856 19.9305 29.568C19.6425 29.28 19.499 28.924 19.5 28.5V18H18C17.175 18 16.4685 17.706 15.8805 17.118C15.2925 16.53 14.999 15.824 15 15V7.50001C15 5.42501 15.7315 3.65601 17.1945 2.19301C18.6575 0.730005 20.426 -0.00099481 22.5 5.19032e-06V28.5C22.5 28.925 22.356 29.2815 22.068 29.5695C21.78 29.8575 21.424 30.001 21 30ZM6 30C5.575 30 5.2185 29.856 4.9305 29.568C4.6425 29.28 4.499 28.924 4.5 28.5V16.275C3.225 15.925 2.156 15.225 1.293 14.175C0.430002 13.125 -0.000998264 11.9 1.73611e-06 10.5V1.50001C1.73611e-06 1.07501 0.144002 0.718505 0.432002 0.430505C0.720002 0.142505 1.076 -0.00099481 1.5 5.19032e-06C1.925 5.19032e-06 2.2815 0.144005 2.5695 0.432005C2.8575 0.720006 3.001 1.07601 3 1.50001V10.5H4.5V1.50001C4.5 1.07501 4.644 0.718505 4.932 0.430505C5.22 0.142505 5.576 -0.00099481 6 5.19032e-06C6.425 5.19032e-06 6.7815 0.144005 7.0695 0.432005C7.3575 0.720006 7.501 1.07601 7.5 1.50001V10.5H9V1.50001C9 1.07501 9.144 0.718505 9.432 0.430505C9.72 0.142505 10.076 -0.00099481 10.5 5.19032e-06C10.925 5.19032e-06 11.2815 0.144005 11.5695 0.432005C11.8575 0.720006 12.001 1.07601 12 1.50001V10.5C12 11.9 11.5685 13.125 10.7055 14.175C9.8425 15.225 8.774 15.925 7.5 16.275V28.5C7.5 28.925 7.356 29.2815 7.068 29.5695C6.78 29.8575 6.424 30.001 6 30Z" fill="#3C6046"/>
</svg>
