<svg width="36" height="36" viewBox="0 0 36 36" fill="none" xmlns="http://www.w3.org/2000/svg">
<path d="M27 33C26.575 33 26.2185 32.856 25.9305 32.568C25.6425 32.28 25.499 31.924 25.5 31.5V21H24C23.175 21 22.4685 20.706 21.8805 20.118C21.2925 19.53 20.999 18.824 21 18V10.5C21 8.42501 21.7315 6.65601 23.1945 5.19301C24.6575 3.73001 26.426 2.99901 28.5 3.00001V31.5C28.5 31.925 28.356 32.2815 28.068 32.5695C27.78 32.8575 27.424 33.001 27 33ZM12 33C11.575 33 11.2185 32.856 10.9305 32.568C10.6425 32.28 10.499 31.924 10.5 31.5V19.275C9.225 18.925 8.156 18.225 7.293 17.175C6.43 16.125 5.999 14.9 6 13.5V4.50001C6 4.07501 6.144 3.71851 6.432 3.43051C6.72 3.14251 7.076 2.99901 7.5 3.00001C7.925 3.00001 8.2815 3.14401 8.5695 3.43201C8.8575 3.72001 9.001 4.07601 9 4.50001V13.5H10.5V4.50001C10.5 4.07501 10.644 3.71851 10.932 3.43051C11.22 3.14251 11.576 2.99901 12 3.00001C12.425 3.00001 12.7815 3.14401 13.0695 3.43201C13.3575 3.72001 13.501 4.07601 13.5 4.50001V13.5H15V4.50001C15 4.07501 15.144 3.71851 15.432 3.43051C15.72 3.14251 16.076 2.99901 16.5 3.00001C16.925 3.00001 17.2815 3.14401 17.5695 3.43201C17.8575 3.72001 18.001 4.07601 18 4.50001V13.5C18 14.9 17.5685 16.125 16.7055 17.175C15.8425 18.225 14.774 18.925 13.5 19.275V31.5C13.5 31.925 13.356 32.2815 13.068 32.5695C12.78 32.8575 12.424 33.001 12 33Z" fill="white"/>
</svg>
