<svg width="30" height="30" viewBox="0 0 30 30" fill="none" xmlns="http://www.w3.org/2000/svg">
<path d="M2.29895 13.875C2.74332 8.79203 6.17024 4.56402 10.8196 2.95114C10.488 3.50082 10.188 4.10921 9.91985 4.76055C8.92322 7.18093 8.29167 10.3725 8.17966 13.875H2.29895ZM15 0C6.7157 0 0 6.71573 0 15C0 23.2843 6.7157 30 15 30C23.2843 30 30 23.2843 30 15C30 6.71573 23.2843 0 15 0ZM15 2.25C15.392 2.25 15.8707 2.43821 16.4177 3.00012C16.9682 3.56558 17.5158 4.44232 17.9996 5.61724C18.8666 7.72275 19.4576 10.6123 19.5691 13.875H10.4309C10.5424 10.6123 11.1334 7.72275 12.0004 5.61724C12.4842 4.44232 13.0317 3.56558 13.5822 3.00012C14.1293 2.43821 14.6079 2.25 15 2.25ZM21.8203 13.875C21.7083 10.3725 21.0767 7.18093 20.0801 4.76055C19.8119 4.10921 19.512 3.50083 19.1804 2.95114C23.8297 4.56402 27.2567 8.79203 27.701 13.875H21.8203ZM19.5691 16.125C19.4576 19.3877 18.8666 22.2773 17.9996 24.3828C17.5158 25.5577 16.9682 26.4344 16.4177 26.9999C15.8707 27.5618 15.392 27.75 15 27.75C14.6079 27.75 14.1293 27.5618 13.5822 26.9999C13.0317 26.4344 12.4842 25.5577 12.0004 24.3828C11.1334 22.2773 10.5424 19.3877 10.4309 16.125H19.5691ZM19.1804 27.0489C19.512 26.4992 19.8119 25.8908 20.0801 25.2394C21.0767 22.8191 21.7083 19.6275 21.8203 16.125H27.701C27.2567 21.208 23.8297 25.436 19.1804 27.0489ZM10.8196 27.0489C6.17024 25.436 2.74332 21.208 2.29895 16.125H8.17966C8.29167 19.6275 8.92322 22.8191 9.91985 25.2394C10.188 25.8908 10.488 26.4992 10.8196 27.0489Z" fill="#2B4535"/>
</svg>
