<svg width="32" height="32" viewBox="0 0 32 32" fill="none" xmlns="http://www.w3.org/2000/svg">
<path d="M0 7.03121V26.3937C0 27.5187 0.561111 28.5812 1.5 28.975C6.33333 31.0062 11.1667 29.6187 16 28.2312C20.4333 26.9625 24.8667 25.6875 29.2944 27.05C30.5722 27.4437 32 26.4562 32 24.9625V5.60621C32 4.48121 31.4389 3.41871 30.5 3.02496C25.6667 0.993706 20.8333 2.38121 16 3.76871C11.5667 5.03746 7.13333 6.30621 2.70556 4.94371C1.42222 4.54996 0 5.53746 0 7.03121ZM16 22C13.5444 22 11.5556 19.3125 11.5556 16C11.5556 12.6875 13.5444 9.99996 16 9.99996C18.4556 9.99996 20.4444 12.6875 20.4444 16C20.4444 19.3125 18.4556 22 16 22ZM3.55556 22C5.51667 22 7.11111 23.7937 7.11111 26H3.55556V22ZM7.11111 8.99996C7.11111 11.2062 5.51667 13 3.55556 13V8.99996H7.11111ZM28.4444 19V23H24.8889C24.8889 20.7937 26.4833 19 28.4444 19ZM24.8889 5.99996H28.4444V9.99996C26.4833 9.99996 24.8889 8.20621 24.8889 5.99996Z" fill="#3C6046"/>
</svg>
