<svg width="30" height="30" viewBox="0 0 30 30" fill="none" xmlns="http://www.w3.org/2000/svg">
<path d="M25.5 6.66667H24V5C24 3.67392 23.5259 2.40215 22.682 1.46447C21.8381 0.526784 20.6935 0 19.5 0H4.5C3.30653 0 2.16193 0.526784 1.31802 1.46447C0.474106 2.40215 0 3.67392 0 5V25C0 26.3261 0.474106 27.5979 1.31802 28.5355C2.16193 29.4732 3.30653 30 4.5 30H25.5C26.6935 30 27.8381 29.4732 28.682 28.5355C29.5259 27.5979 30 26.3261 30 25V11.6667C30 10.3406 29.5259 9.06881 28.682 8.13113C27.8381 7.19345 26.6935 6.66667 25.5 6.66667ZM4.5 3.33333H19.5C19.8978 3.33333 20.2794 3.50893 20.5607 3.82149C20.842 4.13405 21 4.55797 21 5V6.66667H4.5C4.10218 6.66667 3.72064 6.49107 3.43934 6.17851C3.15804 5.86595 3 5.44203 3 5C3 4.55797 3.15804 4.13405 3.43934 3.82149C3.72064 3.50893 4.10218 3.33333 4.5 3.33333ZM27 20H25.5C25.1022 20 24.7206 19.8244 24.4393 19.5118C24.158 19.1993 24 18.7754 24 18.3333C24 17.8913 24.158 17.4674 24.4393 17.1548C24.7206 16.8423 25.1022 16.6667 25.5 16.6667H27V20ZM27 13.3333H25.5C24.3065 13.3333 23.1619 13.8601 22.318 14.7978C21.4741 15.7355 21 17.0072 21 18.3333C21 19.6594 21.4741 20.9312 22.318 21.8689C23.1619 22.8065 24.3065 23.3333 25.5 23.3333H27V25C27 25.442 26.842 25.866 26.5607 26.1785C26.2794 26.4911 25.8978 26.6667 25.5 26.6667H4.5C4.10218 26.6667 3.72064 26.4911 3.43934 26.1785C3.15804 25.866 3 25.442 3 25V9.71667C3.4819 9.90503 3.98915 10.0008 4.5 10H25.5C25.8978 10 26.2794 10.1756 26.5607 10.4882C26.842 10.8007 27 11.2246 27 11.6667V13.3333Z" fill="#2B4535"/>
</svg>
