<svg width="24" height="24" viewBox="0 0 24 24" fill="none" xmlns="http://www.w3.org/2000/svg">
<path d="M13.125 4.69998L19.725 11.3C19.825 11.4 19.896 11.5083 19.938 11.625C19.9793 11.7416 20 11.8666 20 12C20 12.1333 19.9793 12.2583 19.938 12.375C19.896 12.4916 19.825 12.6 19.725 12.7L13.125 19.3C12.9417 19.4833 12.7127 19.5793 12.438 19.588C12.1627 19.596 11.925 19.5 11.725 19.3C11.525 19.1166 11.4207 18.8876 11.412 18.613C11.404 18.3376 11.5 18.1 11.7 17.9L16.6 13H5.425C5.14167 13 4.904 12.9043 4.712 12.713C4.52067 12.521 4.425 12.2833 4.425 12C4.425 11.7166 4.52067 11.4793 4.712 11.288C4.904 11.096 5.14167 11 5.425 11L16.6 11L11.7 6.09998C11.5167 5.91665 11.4207 5.68331 11.412 5.39998C11.404 5.11664 11.5 4.88331 11.7 4.69998C11.8833 4.49998 12.1167 4.39998 12.4 4.39998C12.6833 4.39998 12.925 4.49998 13.125 4.69998Z" fill="#3C6046"/>
</svg>
