<svg width="34" height="29" viewBox="0 0 34 29" fill="none" xmlns="http://www.w3.org/2000/svg">
<path d="M18.4167 7.975C18.4167 3.57053 21.9051 0 26.2083 0C30.5116 0 34 3.57053 34 7.975V10.5125C34 11.1131 33.5243 11.6 32.9375 11.6C32.3507 11.6 31.875 11.1131 31.875 10.5125V7.975C31.875 4.77175 29.3379 2.175 26.2083 2.175C23.0787 2.175 20.5417 4.77175 20.5417 7.975V10.15H21.6042C23.7558 10.15 25.5 11.9353 25.5 14.1375V25.0125C25.5 27.2147 23.7558 29 21.6042 29H3.89583C1.74422 29 0 27.2147 0 25.0125V14.1375C0 11.9353 1.74422 10.15 3.89583 10.15H18.4167V7.975ZM3.89583 12.325C2.91783 12.325 2.125 13.1365 2.125 14.1375V25.0125C2.125 26.0135 2.91783 26.825 3.89583 26.825H21.6042C22.5822 26.825 23.375 26.0135 23.375 25.0125V14.1375C23.375 13.1365 22.5822 12.325 21.6042 12.325H3.89583ZM12.75 16.675C11.1852 16.675 9.91667 17.9734 9.91667 19.575C9.91667 21.1766 11.1852 22.475 12.75 22.475C14.3148 22.475 15.5833 21.1766 15.5833 19.575C15.5833 17.9734 14.3148 16.675 12.75 16.675Z" fill="#2B4535"/>
</svg>
