<svg width="36" height="36" viewBox="0 0 36 36" fill="none" xmlns="http://www.w3.org/2000/svg">
<path d="M25.9125 27.1875L25.275 26.55C25.05 26.325 24.7815 26.2125 24.4695 26.2125C24.1575 26.2125 23.8885 26.325 23.6625 26.55C23.4375 26.775 23.325 27.0375 23.325 27.3375C23.325 27.6375 23.4375 27.9 23.6625 28.125L25.125 29.5875C25.35 29.8125 25.6125 29.925 25.9125 29.925C26.2125 29.925 26.475 29.8125 26.7 29.5875L30.3375 26.025C30.5625 25.8 30.675 25.531 30.675 25.218C30.675 24.905 30.5625 24.6365 30.3375 24.4125C30.1125 24.1875 29.8435 24.075 29.5305 24.075C29.2175 24.075 28.949 24.1875 28.725 24.4125L25.9125 27.1875ZM10.5 13.5H25.5C25.925 13.5 26.2815 13.356 26.5695 13.068C26.8575 12.78 27.001 12.424 27 12C27 11.575 26.856 11.2185 26.568 10.9305C26.28 10.6425 25.924 10.499 25.5 10.5H10.5C10.075 10.5 9.7185 10.644 9.4305 10.932C9.1425 11.22 8.999 11.576 9 12C9 12.425 9.144 12.7815 9.432 13.0695C9.72 13.3575 10.076 13.501 10.5 13.5ZM27 34.5C24.925 34.5 23.156 33.7685 21.693 32.3055C20.23 30.8425 19.499 29.074 19.5 27C19.5 24.925 20.2315 23.156 21.6945 21.693C23.1575 20.23 24.926 19.499 27 19.5C29.075 19.5 30.844 20.2315 32.307 21.6945C33.77 23.1575 34.501 24.926 34.5 27C34.5 29.075 33.7685 30.844 32.3055 32.307C30.8425 33.77 29.074 34.501 27 34.5ZM4.5 32.8125V7.5C4.5 6.675 4.794 5.9685 5.382 5.3805C5.97 4.7925 6.676 4.499 7.5 4.5H28.5C29.325 4.5 30.0315 4.794 30.6195 5.382C31.2075 5.97 31.501 6.676 31.5 7.5V17.5125C31.025 17.2875 30.5375 17.1 30.0375 16.95C29.5375 16.8 29.025 16.6875 28.5 16.6125V7.5H7.5V28.575H16.6125C16.7375 29.35 16.9315 30.0875 17.1945 30.7875C17.4575 31.4875 17.801 32.15 18.225 32.775C18.1 32.8 17.9685 32.781 17.8305 32.718C17.6925 32.655 17.574 32.574 17.475 32.475L16.275 31.275C16.125 31.125 15.95 31.05 15.75 31.05C15.55 31.05 15.375 31.125 15.225 31.275L14.025 32.475C13.875 32.625 13.7 32.7 13.5 32.7C13.3 32.7 13.125 32.625 12.975 32.475L11.775 31.275C11.625 31.125 11.45 31.05 11.25 31.05C11.05 31.05 10.875 31.125 10.725 31.275L9.525 32.475C9.375 32.625 9.2 32.7 9 32.7C8.8 32.7 8.625 32.625 8.475 32.475L7.275 31.275C7.125 31.125 6.95 31.05 6.75 31.05C6.55 31.05 6.375 31.125 6.225 31.275L5.025 32.475L4.5 32.8125ZM10.5 25.5H16.6125C16.6875 24.975 16.8 24.4625 16.95 23.9625C17.1 23.4625 17.2875 22.975 17.5125 22.5H10.5C10.075 22.5 9.7185 22.644 9.4305 22.932C9.1425 23.22 8.999 23.576 9 24C9 24.425 9.144 24.7815 9.432 25.0695C9.72 25.3575 10.076 25.501 10.5 25.5ZM10.5 19.5H19.65C20.6 18.575 21.7065 17.8435 22.9695 17.3055C24.2325 16.7675 25.576 16.499 27 16.5H10.5C10.075 16.5 9.7185 16.644 9.4305 16.932C9.1425 17.22 8.999 17.576 9 18C9 18.425 9.144 18.7815 9.432 19.0695C9.72 19.3575 10.076 19.501 10.5 19.5Z" fill="#2B4535"/>
</svg>
