<svg width="24" height="28" viewBox="0 0 24 28" fill="none" xmlns="http://www.w3.org/2000/svg">
<path d="M6.35294 1.4C6.35294 0.626801 6.98501 0 7.76471 0H16.2353C17.015 0 17.6471 0.626801 17.6471 1.4H21.1765C22.7359 1.4 24 2.6536 24 4.2V25.2C24 26.7464 22.7359 28 21.1765 28H2.82353C1.26414 28 0 26.7464 0 25.2V4.2C0 2.6536 1.26414 1.4 2.82353 1.4H6.35294ZM6.35294 4.2V3.5H2.82353C2.43368 3.5 2.11765 3.8134 2.11765 4.2V25.2C2.11765 25.5866 2.43368 25.9 2.82353 25.9H21.1765C21.5663 25.9 21.8824 25.5866 21.8824 25.2V4.2C21.8824 3.8134 21.5663 3.5 21.1765 3.5H17.6471V4.2C17.6471 4.9732 17.015 5.6 16.2353 5.6H7.76471C6.98501 5.6 6.35294 4.9732 6.35294 4.2ZM8.34216 15.0075C7.92866 14.5975 7.25825 14.5975 6.84476 15.0075C6.43126 15.4176 6.43126 16.0824 6.84476 16.4925L9.83956 19.4623C10.0381 19.6592 10.3074 19.7698 10.5883 19.7698C10.8691 19.7698 11.1384 19.6592 11.337 19.4623L18.3248 12.5327C18.7383 12.1226 18.7383 11.4578 18.3248 11.0477C17.9113 10.6377 17.2409 10.6377 16.8274 11.0477L10.5883 17.2349L8.34216 15.0075Z" fill="#2B4535"/>
</svg>
