<svg width="31" height="30" viewBox="0 0 31 30" fill="none" xmlns="http://www.w3.org/2000/svg">
<g filter="url(#filter0_d_1180_902)">
<path d="M15.4998 23.1739L9.10186 27.0281C8.81922 27.208 8.52373 27.285 8.2154 27.2593C7.90707 27.2337 7.63727 27.1309 7.40602 26.951C7.17477 26.7712 6.99491 26.5461 6.86644 26.2758C6.73797 26.0055 6.71227 25.7038 6.78936 25.3708L8.48519 18.0864L2.81957 13.1916C2.56262 12.9604 2.40229 12.6968 2.33857 12.4008C2.27484 12.1048 2.29386 11.816 2.39561 11.5344C2.49839 11.2517 2.65255 11.0205 2.85811 10.8406C3.06366 10.6607 3.3463 10.5451 3.70602 10.4937L11.1831 9.83852L14.0737 2.9781C14.2022 2.66977 14.4016 2.43852 14.6719 2.28435C14.9422 2.13018 15.2182 2.0531 15.4998 2.0531C15.7824 2.0531 16.0584 2.13018 16.3276 2.28435C16.5969 2.43852 16.7963 2.66977 16.9258 2.9781L19.8164 9.83852L27.2935 10.4937C27.6532 10.5451 27.9359 10.6607 28.1414 10.8406C28.347 11.0205 28.5012 11.2517 28.6039 11.5344C28.7067 11.817 28.7262 12.1063 28.6625 12.4023C28.5988 12.6983 28.438 12.9614 28.18 13.1916L22.5144 18.0864L24.2102 25.3708C24.2873 25.7048 24.2616 26.007 24.1331 26.2773C24.0046 26.5476 23.8248 26.7722 23.5935 26.951C23.3623 27.1309 23.0925 27.2337 22.7841 27.2593C22.4758 27.285 22.1803 27.208 21.8977 27.0281L15.4998 23.1739Z" fill="white"/>
</g>
<defs>
<filter id="filter0_d_1180_902" x="0.301758" y="0.0531006" width="30.3975" height="29.2111" filterUnits="userSpaceOnUse" color-interpolation-filters="sRGB">
<feFlood flood-opacity="0" result="BackgroundImageFix"/>
<feColorMatrix in="SourceAlpha" type="matrix" values="0 0 0 0 0 0 0 0 0 0 0 0 0 0 0 0 0 0 127 0" result="hardAlpha"/>
<feOffset/>
<feGaussianBlur stdDeviation="1"/>
<feComposite in2="hardAlpha" operator="out"/>
<feColorMatrix type="matrix" values="0 0 0 0 0 0 0 0 0 0 0 0 0 0 0 0 0 0 0.25 0"/>
<feBlend mode="normal" in2="BackgroundImageFix" result="effect1_dropShadow_1180_902"/>
<feBlend mode="normal" in="SourceGraphic" in2="effect1_dropShadow_1180_902" result="shape"/>
</filter>
</defs>
</svg>
