<svg width="32" height="30" viewBox="0 0 32 30" fill="none" xmlns="http://www.w3.org/2000/svg">
<g filter="url(#filter0_d_1180_764)">
<path d="M16.1663 23.1739L9.76836 27.0281C9.48572 27.208 9.19024 27.285 8.8819 27.2593C8.57357 27.2337 8.30378 27.1309 8.07253 26.951C7.84128 26.7712 7.66142 26.5461 7.53295 26.2758C7.40447 26.0055 7.37878 25.7038 7.45586 25.3708L9.15169 18.0864L3.48607 13.1916C3.22913 12.9604 3.06879 12.6968 3.00507 12.4008C2.94135 12.1048 2.96036 11.816 3.06211 11.5344C3.16489 11.2517 3.31906 11.0205 3.52461 10.8406C3.73017 10.6607 4.01281 10.5451 4.37253 10.4937L11.8496 9.83852L14.7402 2.9781C14.8687 2.66977 15.0681 2.43852 15.3384 2.28435C15.6087 2.13018 15.8847 2.0531 16.1663 2.0531C16.4489 2.0531 16.7249 2.13018 16.9942 2.28435C17.2634 2.43852 17.4628 2.66977 17.5923 2.9781L20.4829 9.83852L27.96 10.4937C28.3197 10.5451 28.6024 10.6607 28.8079 10.8406C29.0135 11.0205 29.1677 11.2517 29.2704 11.5344C29.3732 11.817 29.3927 12.1063 29.329 12.4023C29.2653 12.6983 29.1045 12.9614 28.8465 13.1916L23.1809 18.0864L24.8767 25.3708C24.9538 25.7048 24.9281 26.007 24.7996 26.2773C24.6711 26.5476 24.4913 26.7722 24.26 26.951C24.0288 27.1309 23.759 27.2337 23.4507 27.2593C23.1423 27.285 22.8468 27.208 22.5642 27.0281L16.1663 23.1739Z" fill="#FFCD4A"/>
</g>
<defs>
<filter id="filter0_d_1180_764" x="0.968262" y="0.0531006" width="30.3975" height="29.2111" filterUnits="userSpaceOnUse" color-interpolation-filters="sRGB">
<feFlood flood-opacity="0" result="BackgroundImageFix"/>
<feColorMatrix in="SourceAlpha" type="matrix" values="0 0 0 0 0 0 0 0 0 0 0 0 0 0 0 0 0 0 127 0" result="hardAlpha"/>
<feOffset/>
<feGaussianBlur stdDeviation="1"/>
<feComposite in2="hardAlpha" operator="out"/>
<feColorMatrix type="matrix" values="0 0 0 0 0 0 0 0 0 0 0 0 0 0 0 0 0 0 0.25 0"/>
<feBlend mode="normal" in2="BackgroundImageFix" result="effect1_dropShadow_1180_764"/>
<feBlend mode="normal" in="SourceGraphic" in2="effect1_dropShadow_1180_764" result="shape"/>
</filter>
</defs>
</svg>
