<svg width="28" height="28" viewBox="0 0 28 28" fill="none" xmlns="http://www.w3.org/2000/svg">
<path d="M14.1167 21.6417L14 21.7583L13.8717 21.6417C8.33004 16.6133 4.66671 13.2883 4.66671 9.91667C4.66671 7.58333 6.41671 5.83333 8.75004 5.83333C10.5467 5.83333 12.2967 7 12.915 8.58667H15.085C15.7034 7 17.4534 5.83333 19.25 5.83333C21.5834 5.83333 23.3334 7.58333 23.3334 9.91667C23.3334 13.2883 19.67 16.6133 14.1167 21.6417ZM19.25 3.5C17.22 3.5 15.2717 4.445 14 5.92667C12.7284 4.445 10.78 3.5 8.75004 3.5C5.15671 3.5 2.33337 6.31167 2.33337 9.91667C2.33337 14.315 6.30004 17.92 12.3084 23.3683L14 24.9083L15.6917 23.3683C21.7 17.92 25.6667 14.315 25.6667 9.91667C25.6667 6.31167 22.8434 3.5 19.25 3.5Z" fill="#8A9A93"/>
</svg>
