<svg width="28" height="28" viewBox="0 0 28 28" fill="none" xmlns="http://www.w3.org/2000/svg">
<path d="M14 21.3209L9.15835 24.2375C8.94446 24.3736 8.72085 24.432 8.48752 24.4125C8.25418 24.3931 8.05002 24.3153 7.87502 24.1792C7.70002 24.0431 7.56391 23.8727 7.46668 23.6682C7.36946 23.4636 7.35002 23.2354 7.40835 22.9834L8.69168 17.4709L4.40418 13.7667C4.20974 13.5917 4.08841 13.3922 4.04018 13.1682C3.99196 12.9442 4.00635 12.7256 4.08335 12.5125C4.16113 12.2986 4.2778 12.1236 4.43335 11.9875C4.58891 11.8514 4.8028 11.7639 5.07502 11.725L10.7334 11.2292L12.9209 6.03752C13.0181 5.80419 13.169 5.62919 13.3735 5.51252C13.5781 5.39586 13.7869 5.33752 14 5.33752C14.2139 5.33752 14.4227 5.39586 14.6265 5.51252C14.8303 5.62919 14.9812 5.80419 15.0792 6.03752L17.2667 11.2292L22.925 11.725C23.1972 11.7639 23.4111 11.8514 23.5667 11.9875C23.7222 12.1236 23.8389 12.2986 23.9167 12.5125C23.9945 12.7264 24.0092 12.9454 23.961 13.1694C23.9128 13.3934 23.7911 13.5925 23.5958 13.7667L19.3083 17.4709L20.5917 22.9834C20.65 23.2361 20.6306 23.4648 20.5333 23.6694C20.4361 23.8739 20.3 24.0439 20.125 24.1792C19.95 24.3153 19.7459 24.3931 19.5125 24.4125C19.2792 24.432 19.0556 24.3736 18.8417 24.2375L14 21.3209Z" fill="#FFCD4A"/>
</svg>
