<svg width="149" height="37" viewBox="0 0 149 37" fill="none" xmlns="http://www.w3.org/2000/svg">
<path d="M23.9023 36.0747C24.168 36.0747 24.3008 35.9419 24.3008 35.6763C24.3008 35.5435 24.2676 35.3774 24.2012 35.1782C24.002 34.6304 23.9023 34.0576 23.9023 33.46C23.9023 32.2148 24.5083 30.3223 25.7202 27.7822C26.5503 26.0391 27.4717 24.4287 28.4844 22.9512C29.0986 22.0713 29.4058 21.4072 29.4058 20.959C29.4058 20.8594 29.3892 20.7515 29.356 20.6353C29.3394 20.519 29.2314 20.3198 29.0322 20.0376C28.6504 19.4233 28.2187 18.8921 27.7373 18.4438L27.4634 18.1699C28.6255 18.1865 29.7959 18.3193 30.9746 18.5684C32.1699 18.8008 32.9419 19.0332 33.2905 19.2656L33.3901 19.3154C33.4565 19.3154 33.5063 19.2656 33.5396 19.166C33.5894 19.0498 33.6143 18.9087 33.6143 18.7427L33.5894 18.4438C33.3735 17.0161 32.6514 15.9453 31.4229 15.2314C29.6631 14.2021 27.2476 13.6875 24.1763 13.6875C23.479 13.6875 22.5493 13.7456 21.3872 13.8618C20.2417 13.9614 19.1792 14.1606 18.1997 14.4595C17.3032 14.7417 16.772 15.0903 16.606 15.5054C16.5396 15.6714 16.5063 15.8208 16.5063 15.9536C16.5063 16.0698 16.5396 16.3438 16.606 16.7754C16.8716 18.3193 17.2617 19.3984 17.7764 20.0127C17.8428 20.0957 17.9092 20.1538 17.9756 20.187C18.0586 20.2036 18.1914 20.2202 18.374 20.2368C18.4902 20.2368 18.6064 20.2368 18.7227 20.2368C18.8389 20.2202 19.0879 20.1289 19.4697 19.9629C20.0508 19.7305 20.5073 19.5645 20.8394 19.4648L21.0386 19.415C20.8892 20.2617 20.4077 21.3242 19.5942 22.6025C18.7808 23.8809 17.8013 25.1343 16.6558 26.3628C15.5269 27.5747 14.4062 28.5127 13.2939 29.1768C12.5801 29.6084 11.9326 29.8242 11.3516 29.8242C11.0361 29.8242 10.6211 29.6997 10.1064 29.4507C9.5918 29.1851 9.30957 28.0811 9.25977 26.1387C9.25977 23.7979 9.73291 21.6895 10.6792 19.8135C11.6255 17.9209 12.854 16.1445 14.3647 14.4844C15.5269 13.1396 16.9712 11.8862 18.6978 10.7241C20.4409 9.54541 22.3169 8.74023 24.3257 8.30859C25.0063 8.15918 25.687 8.08447 26.3677 8.08447C27.6958 8.08447 29.0156 8.3667 30.3271 8.93115C30.5762 9.04736 30.8003 9.10547 30.9995 9.10547C31.2319 9.10547 31.4062 9.02246 31.5225 8.85645C31.6553 8.69043 31.7217 8.50781 31.7217 8.30859C31.7217 8.09277 31.6553 7.83545 31.5225 7.53662C30.9082 6.2085 29.9868 4.93018 28.7583 3.70166C26.3013 1.24463 23.6367 0.0161133 20.7646 0.0161133C19.9678 0.0161133 19.146 0.107422 18.2993 0.290039C15.228 0.920898 12.4141 2.39014 9.85742 4.69775C5.30859 8.88135 2.45312 13.1978 1.29102 17.647C1.02539 18.8423 0.892578 19.9795 0.892578 21.0586C0.892578 23.2334 1.57324 25.3833 2.93457 27.5083C3.88086 28.9028 5.20898 30.3555 6.91895 31.8662C8.33008 33.0947 9.55029 33.8335 10.5796 34.0825C10.9116 34.1489 11.2271 34.1821 11.5259 34.1821C12.1733 34.1821 12.8623 33.9912 13.5928 33.6094C14.3398 33.2275 15.0786 32.6548 15.8091 31.8911C16.5396 31.1108 17.1787 30.3555 17.7266 29.625L18.1748 29.0771C18.0918 29.5088 18.0503 29.9321 18.0503 30.3472C18.0503 31.6089 18.5234 32.8125 19.4697 33.958C20.416 35.1035 21.8354 35.8008 23.728 36.0498L23.9023 36.0747ZM45.3682 36.3735C46.1152 36.3735 47.1445 36.2075 48.4561 35.8755C49.7676 35.5435 51.0708 34.73 52.3657 33.4351C53.6606 32.1401 54.3579 30.6294 54.4575 28.9028C54.4575 28.6704 54.4409 28.4712 54.4077 28.3052C54.3911 28.1392 54.333 27.8984 54.2334 27.583C54.1006 27.1514 53.9761 26.8359 53.8599 26.6367C53.7437 26.4375 53.5776 26.3379 53.3618 26.3379C53.1294 26.3379 52.98 26.4956 52.9136 26.811C52.8306 27.2261 52.4487 27.7573 51.7681 28.4048C51.4028 28.7534 51.104 29.0107 50.8716 29.1768C50.6558 29.3428 50.3652 29.5088 50 29.6748C48.2734 30.5215 46.3975 30.9448 44.3721 30.9448C44.123 30.9448 43.7744 30.9282 43.3262 30.895C42.8945 30.8618 42.4961 30.7041 42.1309 30.4219C41.8486 30.2227 41.7075 29.9238 41.7075 29.5254C41.7075 29.3594 41.7324 29.1851 41.7822 29.0024C41.7988 28.9858 41.8403 28.9775 41.9067 28.9775L42.1807 29.0024C43.2432 29.0024 44.5879 28.6289 46.2148 27.8818C47.8418 27.1348 49.1035 26.4375 50 25.79C51.1455 24.96 52.0835 23.9888 52.814 22.8765C53.3618 22.0796 53.6357 21.374 53.6357 20.7598C53.6357 19.9795 53.2788 19.0747 52.5649 18.0454C51.9175 17.1323 50.9214 16.1528 49.5767 15.1069C48.6636 14.4097 47.8335 13.8784 47.0864 13.5132C46.1899 13.1147 45.2852 12.9155 44.3721 12.9155C43.542 12.9155 42.4878 13.1729 41.2095 13.6875C39.9312 14.1855 38.5947 15.2065 37.2002 16.7505C35.8223 18.2778 34.7847 19.938 34.0874 21.731C33.606 22.9595 33.3652 24.105 33.3652 25.1675C33.3652 25.6655 33.415 26.147 33.5146 26.6118C34.0293 28.521 35.0752 30.3057 36.6523 31.9658C38.2461 33.626 40.0059 34.8711 41.9316 35.7012C43.0771 36.1494 44.2227 36.3735 45.3682 36.3735ZM42.1309 27.4834C42.0811 27.4834 42.0479 27.4668 42.0312 27.4336C42.2969 26.4873 42.8447 25.5078 43.6748 24.4951C44.5049 23.4658 45.2104 22.7354 45.7915 22.3037C47.5347 20.9922 48.7134 20.3364 49.3276 20.3364C49.6929 20.3364 49.8755 20.4858 49.8755 20.7847C49.8755 20.9341 49.7593 21.2661 49.5269 21.7808C49.311 22.2788 48.6304 23.0591 47.4849 24.1216C46.6714 24.8687 45.8496 25.5078 45.0195 26.0391C44.2061 26.5703 43.5171 26.9604 42.9526 27.2095C42.5542 27.3921 42.2803 27.4834 42.1309 27.4834ZM65.0659 36C65.4976 36 65.7134 35.834 65.7134 35.502C65.7134 35.4355 65.6968 35.3276 65.6636 35.1782C65.6304 35.0288 65.5474 34.813 65.4146 34.5308C65.2983 34.2319 65.207 33.9497 65.1406 33.6841C65.0742 33.3354 65.041 32.9619 65.041 32.5635C65.041 31.75 65.2153 30.7373 65.564 29.5254C65.9126 28.2969 66.4771 26.6865 67.2573 24.6943C68.0542 22.6357 68.9175 20.187 69.8472 17.3481C71.1255 17.3481 72.022 17.5806 72.5366 18.0454C72.6528 18.145 72.769 18.1948 72.8853 18.1948C72.9683 18.1948 73.043 18.1782 73.1094 18.145C73.4082 17.9458 73.5991 17.5142 73.6821 16.8501C73.7153 16.6841 73.7319 16.5181 73.7319 16.3521C73.7319 14.8247 72.9932 13.8618 71.5156 13.4634C71.6982 12.7993 71.7896 12.3511 71.7896 12.1187C71.7896 11.5542 71.25 10.7822 70.1709 9.80273C69.457 9.17188 68.6934 8.62402 67.8799 8.15918C67.0664 7.67773 66.3774 7.43701 65.813 7.43701C65.3315 7.43701 64.8667 7.74414 64.4185 8.3584L62.3267 12.6167L61.5547 12.5918C60.8076 12.5918 60.0107 12.6831 59.1641 12.8657C58.3174 13.0317 57.6865 13.2974 57.2715 13.6626C57.0889 13.812 56.9644 14.0029 56.8979 14.2354C56.8315 14.4678 56.7817 14.8247 56.7485 15.3062C56.7319 15.7876 56.7236 16.2192 56.7236 16.6011C56.7236 18.2944 56.9727 19.2158 57.4707 19.3652C57.5869 19.415 57.7031 19.4399 57.8193 19.4399C58.002 19.4399 58.1846 19.3984 58.3672 19.3154C58.8154 19.1826 59.189 19.1079 59.4878 19.0913C57.9604 22.9429 57.1968 26.1138 57.1968 28.604C57.1968 29.4175 57.4043 30.6709 57.8193 32.3643C58.2344 34.041 60.459 35.2363 64.4932 35.9502C64.709 35.9834 64.8999 36 65.0659 36ZM78.4634 12.5669C77.019 12.7661 75.6245 13.123 74.2798 13.6377C74.064 13.7207 73.9229 13.8867 73.8564 14.1357C73.79 14.3682 73.7485 14.7251 73.7319 15.2065V15.3062C73.6489 16.7007 73.6821 17.7051 73.8315 18.3193C73.981 18.917 74.2051 19.2656 74.5039 19.3652C74.8027 19.4482 75.1265 19.4233 75.4751 19.2905L76.1973 19.0664C75.1348 21.9551 74.4375 24.4702 74.1055 26.6118C73.7402 28.9858 73.9062 30.8618 74.6035 32.2397C75.168 33.3022 75.9648 34.1489 76.9941 34.7798C78.0234 35.4106 79.3184 35.7759 80.8789 35.8755C81.1445 35.8921 81.3936 35.8838 81.626 35.8506C81.875 35.8008 82.041 35.6929 82.124 35.5269C82.207 35.3608 82.1489 35.1035 81.9497 34.7549C81.5347 34.0576 81.3438 33.3188 81.377 32.5386C81.4102 31.7583 81.5347 30.9531 81.7505 30.123C82.6138 26.6699 83.9253 22.7188 85.6851 18.2695C85.7349 18.1201 85.7847 17.979 85.8345 17.8462C87.3452 17.8296 89.0469 17.8877 90.9395 18.0205C91.0391 18.0371 91.1221 18.062 91.1885 18.0952C91.2549 18.1118 91.313 18.1284 91.3628 18.145C91.4292 18.1616 91.4873 18.1533 91.5371 18.1201C91.8691 17.9209 92.085 17.4976 92.1846 16.8501C92.3008 16.186 92.1846 15.5137 91.8359 14.833C91.5039 14.1523 90.8315 13.6875 89.8188 13.4385C89.3374 13.2393 88.665 13.0483 87.8018 12.8657C87.8848 12.7329 87.9595 12.5918 88.0259 12.4424C88.7896 11.0312 89.6943 9.95215 90.7402 9.20508C91.8027 8.44141 92.8901 8.07617 94.0024 8.10938C94.5669 8.3252 95.0234 8.3252 95.3721 8.10938C95.7207 7.89355 95.9033 7.50342 95.9199 6.93896C95.8369 5.72705 95.2725 4.65625 94.2266 3.72656C93.1807 2.79688 91.9189 2.17432 90.4414 1.85889C88.9805 1.52686 87.4199 1.65967 85.7598 2.25732C84.1162 2.83838 82.7549 4.06689 81.6758 5.94287C80.5967 7.80225 79.6587 9.62012 78.8618 11.3965H78.9116C78.7622 11.7783 78.6128 12.1685 78.4634 12.5669ZM98.5098 35.8008C99.1406 35.8008 99.9292 35.4604 100.875 34.7798C101.739 34.0659 102.635 33.103 103.565 31.8911C104.495 30.6792 105.233 29.6416 105.781 28.7783C105.798 29.9736 106.022 30.9614 106.454 31.7417C107.035 32.7544 107.848 33.6426 108.894 34.4062C109.94 35.1533 111.094 35.585 112.355 35.7012H112.505C113.136 35.7012 113.526 35.5601 113.675 35.2778C113.692 35.2446 113.7 35.2031 113.7 35.1533C113.7 35.0205 113.609 34.8462 113.426 34.6304C112.945 34.1157 112.688 33.5015 112.654 32.7876L112.629 32.3892C112.629 31.7915 112.721 31.1689 112.903 30.5215C113.65 27.5996 114.638 24.6279 115.867 21.6064C116.066 21.0918 116.257 20.5854 116.439 20.0874C116.639 19.5894 116.796 19.2158 116.913 18.9668C117.228 18.2695 117.386 17.6719 117.386 17.1738C117.386 16.6924 117.195 16.1943 116.813 15.6797C116.215 14.8994 115.46 14.2354 114.547 13.6875C113.634 13.1396 112.737 12.7744 111.857 12.5918L111.683 12.5669C111.434 12.5669 111.185 12.708 110.936 12.9902C110.621 13.3389 110.206 14.0278 109.691 15.0571C109.176 16.0864 108.687 17.0659 108.222 17.9956C107.259 20.0708 106.238 22.0298 105.159 23.8726C104.096 25.6987 102.693 27.5664 100.95 29.4756C100.104 30.3721 99.564 30.8203 99.3315 30.8203C99.2153 30.8203 99.1572 30.7041 99.1572 30.4717C99.1572 30.0234 99.4644 29.019 100.079 27.4585C100.56 26.2134 100.992 25.1509 101.374 24.271C102.237 22.3286 102.901 20.5024 103.366 18.7925C103.465 18.3608 103.515 17.9624 103.515 17.5972C103.515 16.6177 103.075 15.7378 102.195 14.9575C101.614 14.4595 100.925 13.9365 100.128 13.3887L99.0078 12.5918C98.5098 12.1934 98.02 11.9941 97.5386 11.9941C97.4556 11.9941 97.2563 12.0107 96.9409 12.0439C96.6421 12.0771 96.252 12.5835 95.7705 13.563C95.3057 14.5259 94.8491 15.5967 94.4009 16.7754C93.4878 18.7676 92.7573 20.8843 92.2095 23.1255C91.9438 24.2212 91.811 25.3086 91.811 26.3877C91.811 27.5332 91.9604 28.6704 92.2593 29.7993C92.4585 30.563 92.7158 31.2021 93.0312 31.7168C93.3633 32.2314 93.853 32.7876 94.5005 33.3853C96.2271 34.9956 97.5635 35.8008 98.5098 35.8008ZM124.483 35.8755C124.682 35.8755 124.881 35.8589 125.081 35.8257C125.296 35.7925 125.446 35.6929 125.529 35.5269L125.554 35.3774C125.554 35.228 125.487 35.0371 125.354 34.8047C124.973 34.1904 124.782 33.543 124.782 32.8623C124.782 32.7959 124.79 32.5635 124.807 32.165C124.823 31.7666 124.939 31.1689 125.155 30.3721C126.019 27.0684 127.322 23.2832 129.065 19.0166C130.825 14.75 132.493 11.1724 134.07 8.28369C134.685 7.17139 134.992 6.46582 134.992 6.16699C134.992 6.01758 134.9 5.82666 134.718 5.59424C133.522 4.1001 131.763 2.87988 129.438 1.93359C129.057 1.75098 128.708 1.65967 128.393 1.65967C127.994 1.65967 127.579 1.85059 127.147 2.23242C126.732 2.59766 126.102 3.74316 125.255 5.66895C124.724 6.73145 123.811 8.78174 122.516 11.8198C119.959 17.7466 118.398 22.644 117.834 26.5122C117.718 27.2427 117.66 27.9233 117.66 28.5542C117.66 29.8657 117.892 30.9531 118.357 31.8164C118.938 32.8291 119.751 33.7339 120.797 34.5308C121.86 35.311 123.022 35.7593 124.284 35.8755H124.483ZM138.129 35.8755C138.329 35.8755 138.528 35.8589 138.727 35.8257C138.943 35.7925 139.092 35.6929 139.175 35.5269L139.2 35.3774C139.2 35.228 139.134 35.0371 139.001 34.8047C138.619 34.1904 138.428 33.543 138.428 32.8623C138.428 32.7959 138.437 32.5635 138.453 32.165C138.47 31.7666 138.586 31.1689 138.802 30.3721C139.665 27.0684 140.968 23.2832 142.711 19.0166C144.471 14.75 146.14 11.1724 147.717 8.28369C148.331 7.17139 148.638 6.46582 148.638 6.16699C148.638 6.01758 148.547 5.82666 148.364 5.59424C147.169 4.1001 145.409 2.87988 143.085 1.93359C142.703 1.75098 142.354 1.65967 142.039 1.65967C141.641 1.65967 141.226 1.85059 140.794 2.23242C140.379 2.59766 139.748 3.74316 138.901 5.66895C138.37 6.73145 137.457 8.78174 136.162 11.8198C133.605 17.7466 132.045 22.644 131.48 26.5122C131.364 27.2427 131.306 27.9233 131.306 28.5542C131.306 29.8657 131.539 30.9531 132.003 31.8164C132.584 32.8291 133.398 33.7339 134.444 34.5308C135.506 35.311 136.668 35.7593 137.93 35.8755H138.129Z" fill="#3C6046"/>
</svg>
