<svg width="18" height="18" viewBox="0 0 18 18" fill="none" xmlns="http://www.w3.org/2000/svg">
<rect width="18" height="18" rx="6" fill="#A7A7A7"/>
<path fill-rule="evenodd" clip-rule="evenodd" d="M8.99998 13.5294C6.49846 13.5294 4.47057 11.5015 4.47057 9C4.47057 6.49847 6.49846 4.47059 8.99998 4.47059C11.5015 4.47059 13.5294 6.49847 13.5294 9C13.5294 11.5015 11.5015 13.5294 8.99998 13.5294ZM3.17645 9C3.17645 5.78375 5.78374 3.17647 8.99998 3.17647C12.2162 3.17647 14.8235 5.78375 14.8235 9C14.8235 12.2162 12.2162 14.8235 8.99998 14.8235C5.78374 14.8235 3.17645 12.2162 3.17645 9ZM7.05881 11.5882V6.41176H9.64704C10.7191 6.41176 11.5882 7.28086 11.5882 8.35294C11.5882 9.42502 10.7191 10.2941 9.64704 10.2941H8.35292V11.5882H7.05881ZM10.2941 8.35294C10.2941 8.7103 10.0044 9 9.64704 9H8.35292V7.70588H9.64704C10.0044 7.70588 10.2941 7.99558 10.2941 8.35294Z" fill="#FCFDFE"/>
</svg>
